<svg width="14" height="14" viewBox="0 0 14 14" fill="none" xmlns="http://www.w3.org/2000/svg">
<g clip-path="url(#clip0)">
<path d="M13.0943 7.76098C13.0488 7.65194 12.9427 7.58079 12.8249 7.58079H9.62991V0.291578C9.62991 0.130632 9.49928 0 9.33834 0H4.67322C4.51227 0 4.38164 0.130632 4.38164 0.291578V7.58082H1.17439C1.0566 7.58082 0.950463 7.65197 0.904978 7.76044C0.860067 7.86947 0.884559 7.99486 0.967957 8.07825L6.78476 13.9143C6.83957 13.9691 6.91365 14 6.99119 14C7.06874 14 7.14282 13.9691 7.19763 13.9149L13.0314 8.07883C13.1147 7.9954 13.1398 7.87005 13.0943 7.76098Z" fill="#EC7C7C"/>
</g>
<defs>
<clipPath id="clip0">
<rect width="14" height="14" fill="white"/>
</clipPath>
</defs>
</svg>
