<svg width="1600" height="484" viewBox="0 0 1600 484" fill="none" xmlns="http://www.w3.org/2000/svg">
<path d="M0 268.5L113.353 276.5L228.712 258L344.071 282L492.032 232L580.307 268.5L707.202 204L768.392 241.5L803 218.79V484H0V268.5Z" fill="url(#paint0_linear)"/>
<path d="M0 268.476L113.006 276.49L228.002 257.957L342.999 282L490.853 231.911L577.971 268.476L704.418 203.861L765.65 241.428L800.5 218.5" stroke="#5E89F4" stroke-width="2"/>
<path d="M800.5 218.5C842.881 190.875 866.642 175.386 909.023 147.761L991.164 222.394L1102.68 161.285L1178.84 203.861L1314.25 50.0873L1432.23 104.184L1600 1" stroke="#4F78E0" stroke-width="2" stroke-dasharray="4 4"/>
<path d="M803 217L811 212V484H803V217Z" fill="url(#paint1_linear)"/>
<path d="M817 208L825 203V484H817V208Z" fill="url(#paint2_linear)"/>
<path d="M831 199L839 194V484H831V199Z" fill="url(#paint3_linear)"/>
<path d="M845 190L853 185V484H845V190Z" fill="url(#paint4_linear)"/>
<path d="M859 181L867 175.735V484H859V181Z" fill="url(#paint5_linear)"/>
<path d="M873 171.79L881 166.653V484H873V171.79Z" fill="url(#paint6_linear)"/>
<path d="M887 162.5L895 157.5V484H887V162.5Z" fill="url(#paint7_linear)"/>
<path d="M901 153.5L909 148.275V484H901V153.5Z" fill="url(#paint8_linear)"/>
<path d="M915 153.899L923 161.117V484H915V153.899Z" fill="url(#paint9_linear)"/>
<path d="M929 166.5L937 173.829V484H929V166.5Z" fill="url(#paint10_linear)"/>
<path d="M943 179.33L951 186.5V484H943V179.33Z" fill="url(#paint11_linear)"/>
<path d="M957 192L965 199.305V484H957V192Z" fill="url(#paint12_linear)"/>
<path d="M971 204.767L979 212V484H971V204.767Z" fill="url(#paint13_linear)"/>
<path d="M985 217.5L993 224.5V484H985V217.5Z" fill="url(#paint14_linear)"/>
<path d="M999 218.676L1007 214.305V484H999V218.676Z" fill="url(#paint15_linear)"/>
<path d="M1013 211L1021 206.5V484H1013V211Z" fill="url(#paint16_linear)"/>
<path d="M1027 203.33L1035 199V484H1027V203.33Z" fill="url(#paint17_linear)"/>
<path d="M1041 195.633L1049 191.271V484H1041V195.633Z" fill="url(#paint18_linear)"/>
<path d="M1055 188L1063 183.5V484H1055V188Z" fill="url(#paint19_linear)"/>
<path d="M1069 180.314L1077 175.919V484H1069V180.314Z" fill="url(#paint20_linear)"/>
<path d="M1083 172.5L1091 168.234V484H1083V172.5Z" fill="url(#paint21_linear)"/>
<path d="M1097 165L1101 162.5H1105V484H1097V165Z" fill="url(#paint22_linear)"/>
<path d="M1111 166.5L1119 171V485H1111V166.5Z" fill="url(#paint23_linear)"/>
<path d="M1125 174.356L1133 178.758V484H1125V174.356Z" fill="url(#paint24_linear)"/>
<path d="M1139 182.3L1147 186.5V484H1139V182.3Z" fill="url(#paint25_linear)"/>
<path d="M1153 190L1161 194.5V484H1153V190Z" fill="url(#paint26_linear)"/>
<path d="M1167 197.805L1175 202.269V484H1167V197.805Z" fill="url(#paint27_linear)"/>
<path d="M1181 202L1189 193V484H1181V202Z" fill="url(#paint28_linear)"/>
<path d="M1195 186.304L1203 177.253V484H1195V186.304Z" fill="url(#paint29_linear)"/>
<path d="M1209 170.5L1217 161.5V484H1209V170.5Z" fill="url(#paint30_linear)"/>
<path d="M1222 155.5L1232 144.207V484H1222V155.5Z" fill="url(#paint31_linear)"/>
<path d="M1236 139.755L1246 128.399V484H1236V139.755Z" fill="url(#paint32_linear)"/>
<path d="M1250 124L1260 112.5V484H1250V124Z" fill="url(#paint33_linear)"/>
<path d="M1264 108L1274 96.5002V484H1264V108Z" fill="url(#paint34_linear)"/>
<path d="M1279 90.5002L1287 82.0002V484H1279V90.5002Z" fill="url(#paint35_linear)"/>
<path d="M1293 75.0003L1301 66.0003V484H1293V75.0003Z" fill="url(#paint36_linear)"/>
<path d="M1307 59.0003L1315 50.0003V484H1307V59.0003Z" fill="url(#paint37_linear)"/>
<path d="M1321 53.7724L1329 57.3983V484H1321V53.7724Z" fill="url(#paint38_linear)"/>
<path d="M1335 60.1926L1343 63.7518V484H1335V60.1926Z" fill="url(#paint39_linear)"/>
<path d="M1349 66.5002L1357 70.2718V484H1349V66.5002Z" fill="url(#paint40_linear)"/>
<path d="M1363 73.0003L1371 76.6919V484H1363V73.0003Z" fill="url(#paint41_linear)"/>
<path d="M1377 79.5003L1385 83.0003V484H1377V79.5003Z" fill="url(#paint42_linear)"/>
<path d="M1391 85.8434L1399 89.5002V484H1391V85.8434Z" fill="url(#paint43_linear)"/>
<path d="M1405 92.3055L1413 96.0003V484H1405V92.3055Z" fill="url(#paint44_linear)"/>
<path d="M1419 98.7296L1427 102.256V484H1419V98.7296Z" fill="url(#paint45_linear)"/>
<path d="M1433 104.246L1441 99.3581V484H1433V104.246Z" fill="url(#paint46_linear)"/>
<path d="M1447 95.7619L1455 90.7624V484H1447V95.7619Z" fill="url(#paint47_linear)"/>
<path d="M1461 87.0003L1469 82.2064V484H1461V87.0003Z" fill="url(#paint48_linear)"/>
<path d="M1475 78.5003L1483 73.5002V484H1475V78.5003Z" fill="url(#paint49_linear)"/>
<path d="M1489 70.0003L1497 65.0003V484H1489V70.0003Z" fill="url(#paint50_linear)"/>
<path d="M1503 61.2589L1511 56.3154V484H1503V61.2589Z" fill="url(#paint51_linear)"/>
<path d="M1517 52.6266L1525 47.7598V484H1517V52.6266Z" fill="url(#paint52_linear)"/>
<path d="M1531 44.0004L1539 39.0946V484H1531V44.0004Z" fill="url(#paint53_linear)"/>
<path d="M1545 35.5003L1553 30.5003V484H1545V35.5003Z" fill="url(#paint54_linear)"/>
<path d="M1559 26.8153L1567 21.894V484H1559V26.8153Z" fill="url(#paint55_linear)"/>
<path d="M1573 18.2022L1581 13.222V484H1573V18.2022Z" fill="url(#paint56_linear)"/>
<path d="M1587 9.61626L1595 4.6709V484H1587V9.61626Z" fill="url(#paint57_linear)"/>
<defs>
<linearGradient id="paint0_linear" x1="401.249" y1="232" x2="401.249" y2="484" gradientUnits="userSpaceOnUse">
<stop stop-color="#DAE3F9"/>
<stop offset="1" stop-color="#EBF0FC" stop-opacity="0.2"/>
</linearGradient>
<linearGradient id="paint1_linear" x1="807" y1="212" x2="807" y2="484" gradientUnits="userSpaceOnUse">
<stop stop-color="#EBF0FD"/>
<stop offset="1" stop-color="#EBF0FC" stop-opacity="0.4"/>
</linearGradient>
<linearGradient id="paint2_linear" x1="821" y1="203" x2="821" y2="484" gradientUnits="userSpaceOnUse">
<stop stop-color="#EBF0FD"/>
<stop offset="1" stop-color="#EBF0FC" stop-opacity="0.4"/>
</linearGradient>
<linearGradient id="paint3_linear" x1="835" y1="194" x2="835" y2="484" gradientUnits="userSpaceOnUse">
<stop stop-color="#EBF0FD"/>
<stop offset="1" stop-color="#EBF0FC" stop-opacity="0.4"/>
</linearGradient>
<linearGradient id="paint4_linear" x1="849" y1="185" x2="849" y2="484" gradientUnits="userSpaceOnUse">
<stop stop-color="#EBF0FD"/>
<stop offset="1" stop-color="#EBF0FC" stop-opacity="0.4"/>
</linearGradient>
<linearGradient id="paint5_linear" x1="863" y1="175.735" x2="863" y2="484" gradientUnits="userSpaceOnUse">
<stop stop-color="#EBF0FD"/>
<stop offset="1" stop-color="#EBF0FC" stop-opacity="0.4"/>
</linearGradient>
<linearGradient id="paint6_linear" x1="877" y1="166.653" x2="877" y2="484" gradientUnits="userSpaceOnUse">
<stop stop-color="#EBF0FD"/>
<stop offset="1" stop-color="#EBF0FC" stop-opacity="0.4"/>
</linearGradient>
<linearGradient id="paint7_linear" x1="891" y1="157.5" x2="891" y2="484" gradientUnits="userSpaceOnUse">
<stop stop-color="#EBF0FD"/>
<stop offset="1" stop-color="#EBF0FC" stop-opacity="0.4"/>
</linearGradient>
<linearGradient id="paint8_linear" x1="905" y1="148.275" x2="905" y2="484" gradientUnits="userSpaceOnUse">
<stop stop-color="#EBF0FD"/>
<stop offset="1" stop-color="#EBF0FC" stop-opacity="0.4"/>
</linearGradient>
<linearGradient id="paint9_linear" x1="919" y1="153.899" x2="919" y2="484" gradientUnits="userSpaceOnUse">
<stop stop-color="#EBF0FD"/>
<stop offset="1" stop-color="#EBF0FC" stop-opacity="0.4"/>
</linearGradient>
<linearGradient id="paint10_linear" x1="933" y1="166.5" x2="933" y2="484" gradientUnits="userSpaceOnUse">
<stop stop-color="#EBF0FD"/>
<stop offset="1" stop-color="#EBF0FC" stop-opacity="0.4"/>
</linearGradient>
<linearGradient id="paint11_linear" x1="947" y1="179.33" x2="947" y2="484" gradientUnits="userSpaceOnUse">
<stop stop-color="#EBF0FD"/>
<stop offset="1" stop-color="#EBF0FC" stop-opacity="0.4"/>
</linearGradient>
<linearGradient id="paint12_linear" x1="961" y1="192" x2="961" y2="484" gradientUnits="userSpaceOnUse">
<stop stop-color="#EBF0FD"/>
<stop offset="1" stop-color="#EBF0FC" stop-opacity="0.4"/>
</linearGradient>
<linearGradient id="paint13_linear" x1="975" y1="204.767" x2="975" y2="484" gradientUnits="userSpaceOnUse">
<stop stop-color="#EBF0FD"/>
<stop offset="1" stop-color="#EBF0FC" stop-opacity="0.4"/>
</linearGradient>
<linearGradient id="paint14_linear" x1="989" y1="217.5" x2="989" y2="484" gradientUnits="userSpaceOnUse">
<stop stop-color="#EBF0FD"/>
<stop offset="1" stop-color="#EBF0FC" stop-opacity="0.4"/>
</linearGradient>
<linearGradient id="paint15_linear" x1="1003" y1="214.305" x2="1003" y2="484" gradientUnits="userSpaceOnUse">
<stop stop-color="#EBF0FD"/>
<stop offset="1" stop-color="#EBF0FC" stop-opacity="0.4"/>
</linearGradient>
<linearGradient id="paint16_linear" x1="1017" y1="206.5" x2="1017" y2="484" gradientUnits="userSpaceOnUse">
<stop stop-color="#EBF0FD"/>
<stop offset="1" stop-color="#EBF0FC" stop-opacity="0.4"/>
</linearGradient>
<linearGradient id="paint17_linear" x1="1031" y1="199" x2="1031" y2="484" gradientUnits="userSpaceOnUse">
<stop stop-color="#EBF0FD"/>
<stop offset="1" stop-color="#EBF0FC" stop-opacity="0.4"/>
</linearGradient>
<linearGradient id="paint18_linear" x1="1045" y1="191.271" x2="1045" y2="484" gradientUnits="userSpaceOnUse">
<stop stop-color="#EBF0FD"/>
<stop offset="1" stop-color="#EBF0FC" stop-opacity="0.4"/>
</linearGradient>
<linearGradient id="paint19_linear" x1="1059" y1="183.5" x2="1059" y2="484" gradientUnits="userSpaceOnUse">
<stop stop-color="#EBF0FD"/>
<stop offset="1" stop-color="#EBF0FC" stop-opacity="0.4"/>
</linearGradient>
<linearGradient id="paint20_linear" x1="1073" y1="175.919" x2="1073" y2="484" gradientUnits="userSpaceOnUse">
<stop stop-color="#EBF0FD"/>
<stop offset="1" stop-color="#EBF0FC" stop-opacity="0.4"/>
</linearGradient>
<linearGradient id="paint21_linear" x1="1087" y1="168.234" x2="1087" y2="484" gradientUnits="userSpaceOnUse">
<stop stop-color="#EBF0FD"/>
<stop offset="1" stop-color="#EBF0FC" stop-opacity="0.4"/>
</linearGradient>
<linearGradient id="paint22_linear" x1="1101" y1="162.5" x2="1101" y2="484" gradientUnits="userSpaceOnUse">
<stop stop-color="#EBF0FD"/>
<stop offset="1" stop-color="#EBF0FC" stop-opacity="0.4"/>
</linearGradient>
<linearGradient id="paint23_linear" x1="1115" y1="166.5" x2="1115" y2="485" gradientUnits="userSpaceOnUse">
<stop stop-color="#EBF0FD"/>
<stop offset="1" stop-color="#EBF0FC" stop-opacity="0.4"/>
</linearGradient>
<linearGradient id="paint24_linear" x1="1129" y1="174.356" x2="1129" y2="484" gradientUnits="userSpaceOnUse">
<stop stop-color="#EBF0FD"/>
<stop offset="1" stop-color="#EBF0FC" stop-opacity="0.4"/>
</linearGradient>
<linearGradient id="paint25_linear" x1="1143" y1="182.3" x2="1143" y2="484" gradientUnits="userSpaceOnUse">
<stop stop-color="#EBF0FD"/>
<stop offset="1" stop-color="#EBF0FC" stop-opacity="0.4"/>
</linearGradient>
<linearGradient id="paint26_linear" x1="1157" y1="190" x2="1157" y2="484" gradientUnits="userSpaceOnUse">
<stop stop-color="#EBF0FD"/>
<stop offset="1" stop-color="#EBF0FC" stop-opacity="0.4"/>
</linearGradient>
<linearGradient id="paint27_linear" x1="1171" y1="197.805" x2="1171" y2="484" gradientUnits="userSpaceOnUse">
<stop stop-color="#EBF0FD"/>
<stop offset="1" stop-color="#EBF0FC" stop-opacity="0.4"/>
</linearGradient>
<linearGradient id="paint28_linear" x1="1185" y1="193" x2="1185" y2="484" gradientUnits="userSpaceOnUse">
<stop stop-color="#EBF0FD"/>
<stop offset="1" stop-color="#EBF0FC" stop-opacity="0.4"/>
</linearGradient>
<linearGradient id="paint29_linear" x1="1199" y1="177.253" x2="1199" y2="484" gradientUnits="userSpaceOnUse">
<stop stop-color="#EBF0FD"/>
<stop offset="1" stop-color="#EBF0FC" stop-opacity="0.4"/>
</linearGradient>
<linearGradient id="paint30_linear" x1="1213" y1="161.5" x2="1213" y2="484" gradientUnits="userSpaceOnUse">
<stop stop-color="#EBF0FD"/>
<stop offset="1" stop-color="#EBF0FC" stop-opacity="0.4"/>
</linearGradient>
<linearGradient id="paint31_linear" x1="1227" y1="144.207" x2="1227" y2="484" gradientUnits="userSpaceOnUse">
<stop stop-color="#EBF0FD"/>
<stop offset="1" stop-color="#EBF0FC" stop-opacity="0.4"/>
</linearGradient>
<linearGradient id="paint32_linear" x1="1241" y1="128.399" x2="1241" y2="484" gradientUnits="userSpaceOnUse">
<stop stop-color="#EBF0FD"/>
<stop offset="1" stop-color="#EBF0FC" stop-opacity="0.4"/>
</linearGradient>
<linearGradient id="paint33_linear" x1="1255" y1="112.5" x2="1255" y2="484" gradientUnits="userSpaceOnUse">
<stop stop-color="#EBF0FD"/>
<stop offset="1" stop-color="#EBF0FC" stop-opacity="0.4"/>
</linearGradient>
<linearGradient id="paint34_linear" x1="1269" y1="96.5002" x2="1269" y2="484" gradientUnits="userSpaceOnUse">
<stop stop-color="#EBF0FD"/>
<stop offset="1" stop-color="#EBF0FC" stop-opacity="0.4"/>
</linearGradient>
<linearGradient id="paint35_linear" x1="1283" y1="82.0002" x2="1283" y2="484" gradientUnits="userSpaceOnUse">
<stop stop-color="#EBF0FD"/>
<stop offset="1" stop-color="#EBF0FC" stop-opacity="0.4"/>
</linearGradient>
<linearGradient id="paint36_linear" x1="1297" y1="66.0003" x2="1297" y2="484" gradientUnits="userSpaceOnUse">
<stop stop-color="#EBF0FD"/>
<stop offset="1" stop-color="#EBF0FC" stop-opacity="0.4"/>
</linearGradient>
<linearGradient id="paint37_linear" x1="1311" y1="50.0003" x2="1311" y2="484" gradientUnits="userSpaceOnUse">
<stop stop-color="#EBF0FD"/>
<stop offset="1" stop-color="#EBF0FC" stop-opacity="0.4"/>
</linearGradient>
<linearGradient id="paint38_linear" x1="1325" y1="53.7725" x2="1325" y2="484" gradientUnits="userSpaceOnUse">
<stop stop-color="#EBF0FD"/>
<stop offset="1" stop-color="#EBF0FC" stop-opacity="0.4"/>
</linearGradient>
<linearGradient id="paint39_linear" x1="1339" y1="60.1926" x2="1339" y2="484" gradientUnits="userSpaceOnUse">
<stop stop-color="#EBF0FD"/>
<stop offset="1" stop-color="#EBF0FC" stop-opacity="0.4"/>
</linearGradient>
<linearGradient id="paint40_linear" x1="1353" y1="66.5002" x2="1353" y2="484" gradientUnits="userSpaceOnUse">
<stop stop-color="#EBF0FD"/>
<stop offset="1" stop-color="#EBF0FC" stop-opacity="0.4"/>
</linearGradient>
<linearGradient id="paint41_linear" x1="1367" y1="73.0003" x2="1367" y2="484" gradientUnits="userSpaceOnUse">
<stop stop-color="#EBF0FD"/>
<stop offset="1" stop-color="#EBF0FC" stop-opacity="0.4"/>
</linearGradient>
<linearGradient id="paint42_linear" x1="1381" y1="79.5003" x2="1381" y2="484" gradientUnits="userSpaceOnUse">
<stop stop-color="#EBF0FD"/>
<stop offset="1" stop-color="#EBF0FC" stop-opacity="0.4"/>
</linearGradient>
<linearGradient id="paint43_linear" x1="1395" y1="85.8433" x2="1395" y2="484" gradientUnits="userSpaceOnUse">
<stop stop-color="#EBF0FD"/>
<stop offset="1" stop-color="#EBF0FC" stop-opacity="0.4"/>
</linearGradient>
<linearGradient id="paint44_linear" x1="1409" y1="92.3055" x2="1409" y2="484" gradientUnits="userSpaceOnUse">
<stop stop-color="#EBF0FD"/>
<stop offset="1" stop-color="#EBF0FC" stop-opacity="0.4"/>
</linearGradient>
<linearGradient id="paint45_linear" x1="1423" y1="98.7296" x2="1423" y2="484" gradientUnits="userSpaceOnUse">
<stop stop-color="#EBF0FD"/>
<stop offset="1" stop-color="#EBF0FC" stop-opacity="0.4"/>
</linearGradient>
<linearGradient id="paint46_linear" x1="1437" y1="99.3581" x2="1437" y2="484" gradientUnits="userSpaceOnUse">
<stop stop-color="#EBF0FD"/>
<stop offset="1" stop-color="#EBF0FC" stop-opacity="0.4"/>
</linearGradient>
<linearGradient id="paint47_linear" x1="1451" y1="90.7623" x2="1451" y2="484" gradientUnits="userSpaceOnUse">
<stop stop-color="#EBF0FD"/>
<stop offset="1" stop-color="#EBF0FC" stop-opacity="0.4"/>
</linearGradient>
<linearGradient id="paint48_linear" x1="1465" y1="82.2064" x2="1465" y2="484" gradientUnits="userSpaceOnUse">
<stop stop-color="#EBF0FD"/>
<stop offset="1" stop-color="#EBF0FC" stop-opacity="0.4"/>
</linearGradient>
<linearGradient id="paint49_linear" x1="1479" y1="73.5002" x2="1479" y2="484" gradientUnits="userSpaceOnUse">
<stop stop-color="#EBF0FD"/>
<stop offset="1" stop-color="#EBF0FC" stop-opacity="0.4"/>
</linearGradient>
<linearGradient id="paint50_linear" x1="1493" y1="65.0003" x2="1493" y2="484" gradientUnits="userSpaceOnUse">
<stop stop-color="#EBF0FD"/>
<stop offset="1" stop-color="#EBF0FC" stop-opacity="0.4"/>
</linearGradient>
<linearGradient id="paint51_linear" x1="1507" y1="56.3154" x2="1507" y2="484" gradientUnits="userSpaceOnUse">
<stop stop-color="#EBF0FD"/>
<stop offset="1" stop-color="#EBF0FC" stop-opacity="0.4"/>
</linearGradient>
<linearGradient id="paint52_linear" x1="1521" y1="47.7598" x2="1521" y2="484" gradientUnits="userSpaceOnUse">
<stop stop-color="#EBF0FD"/>
<stop offset="1" stop-color="#EBF0FC" stop-opacity="0.4"/>
</linearGradient>
<linearGradient id="paint53_linear" x1="1535" y1="39.0946" x2="1535" y2="484" gradientUnits="userSpaceOnUse">
<stop stop-color="#EBF0FD"/>
<stop offset="1" stop-color="#EBF0FC" stop-opacity="0.4"/>
</linearGradient>
<linearGradient id="paint54_linear" x1="1549" y1="30.5003" x2="1549" y2="484" gradientUnits="userSpaceOnUse">
<stop stop-color="#EBF0FD"/>
<stop offset="1" stop-color="#EBF0FC" stop-opacity="0.4"/>
</linearGradient>
<linearGradient id="paint55_linear" x1="1563" y1="21.8941" x2="1563" y2="484" gradientUnits="userSpaceOnUse">
<stop stop-color="#EBF0FD"/>
<stop offset="1" stop-color="#EBF0FC" stop-opacity="0.4"/>
</linearGradient>
<linearGradient id="paint56_linear" x1="1577" y1="13.222" x2="1577" y2="484" gradientUnits="userSpaceOnUse">
<stop stop-color="#EBF0FD"/>
<stop offset="1" stop-color="#EBF0FC" stop-opacity="0.4"/>
</linearGradient>
<linearGradient id="paint57_linear" x1="1591" y1="4.6709" x2="1591" y2="484" gradientUnits="userSpaceOnUse">
<stop stop-color="#EBF0FD"/>
<stop offset="1" stop-color="#EBF0FC" stop-opacity="0.4"/>
</linearGradient>
</defs>
</svg>
