<svg width="378" height="134" viewBox="0 0 378 134" fill="none" xmlns="http://www.w3.org/2000/svg">
<rect width="378" height="134" fill="white"/>
<path d="M84.16 70.63L85.165 73H87.055L82.465 62.5H80.65L76.015 73H77.86L78.865 70.63H84.16ZM83.485 69.055H79.525L81.505 64.39L83.485 69.055ZM91.598 73L94.658 65.02H92.933L90.743 71.305L88.523 65.02H86.723L89.813 73H91.598ZM98.8559 64.96C96.4859 64.975 94.8209 66.61 94.8209 69.025C94.8209 71.425 96.4409 73.06 98.9009 73.06C100.281 73.06 101.421 72.565 102.201 71.71L101.286 70.735C100.701 71.335 99.9059 71.665 99.0359 71.665C97.7759 71.665 96.8309 70.9 96.5609 69.67H102.591C102.801 66.79 101.661 64.96 98.8559 64.96ZM96.5309 68.41C96.7259 67.135 97.6109 66.34 98.8709 66.34C100.176 66.34 101.031 67.12 101.091 68.41H96.5309ZM106.114 65.02H104.389V73H106.114V68.83C106.249 67.465 107.269 66.52 108.874 66.61V64.96C107.614 64.96 106.654 65.53 106.114 66.61V65.02ZM114.755 73H116.45L116.435 67.765C116.42 66.01 115.265 64.96 113.21 64.96C111.695 64.96 110.885 65.305 109.775 65.965L110.48 67.165C111.275 66.625 112.07 66.355 112.835 66.355C114.095 66.355 114.74 66.955 114.74 67.96V68.2H112.325C110.405 68.215 109.31 69.145 109.31 70.6C109.31 72.01 110.39 73.075 112.115 73.075C113.27 73.075 114.185 72.73 114.755 72.025V73ZM112.475 71.71C111.515 71.71 110.93 71.245 110.93 70.525C110.93 69.76 111.455 69.46 112.58 69.46H114.74V70.195C114.65 71.065 113.705 71.71 112.475 71.71ZM125.959 65.02H124.249V66.31C123.694 65.44 122.779 64.945 121.549 64.96C119.434 64.975 118.009 66.505 118.009 68.755C118.009 71.05 119.449 72.61 121.609 72.61C122.809 72.61 123.709 72.13 124.249 71.26V72.265C124.249 73.645 123.259 74.53 121.744 74.53C120.769 74.53 119.989 74.215 119.239 73.66L118.504 74.905C119.479 75.565 120.574 75.955 121.819 75.955C124.324 75.955 125.959 74.515 125.959 72.22V65.02ZM121.954 71.26C120.574 71.26 119.644 70.24 119.629 68.8C119.644 67.375 120.589 66.355 121.954 66.355C123.304 66.355 124.249 67.36 124.249 68.8C124.249 70.24 123.304 71.26 121.954 71.26ZM131.639 64.96C129.269 64.975 127.604 66.61 127.604 69.025C127.604 71.425 129.224 73.06 131.684 73.06C133.064 73.06 134.204 72.565 134.984 71.71L134.069 70.735C133.484 71.335 132.689 71.665 131.819 71.665C130.559 71.665 129.614 70.9 129.344 69.67H135.374C135.584 66.79 134.444 64.96 131.639 64.96ZM129.314 68.41C129.509 67.135 130.394 66.34 131.654 66.34C132.959 66.34 133.814 67.12 133.874 68.41H129.314ZM141.145 62.5V73H142.915V69.835H145.33C147.97 69.835 149.485 68.455 149.485 66.085C149.485 63.805 147.97 62.5 145.33 62.5H141.145ZM142.915 64.09H145.255C146.875 64.09 147.79 64.75 147.79 66.13C147.79 67.555 146.875 68.245 145.255 68.245H142.915V64.09ZM154.552 64.96C152.077 64.96 150.382 66.595 150.382 69.01C150.382 71.41 152.077 73.06 154.552 73.06C157.012 73.06 158.707 71.41 158.707 69.01C158.707 66.595 157.012 64.96 154.552 64.96ZM154.552 66.445C155.977 66.445 156.982 67.495 156.982 69.025C156.982 70.57 155.977 71.62 154.552 71.62C153.112 71.62 152.107 70.57 152.107 69.025C152.107 67.495 153.112 66.445 154.552 66.445ZM162.892 64.945C161.362 64.945 159.952 65.635 159.952 67.255C159.937 70.135 164.137 69.22 164.137 70.855C164.137 71.455 163.567 71.71 162.832 71.71C161.962 71.71 160.852 71.335 160.162 70.72L159.547 71.95C160.342 72.67 161.587 73.06 162.757 73.06C164.362 73.06 165.817 72.325 165.817 70.69C165.832 67.795 161.587 68.59 161.587 67.12C161.587 66.55 162.082 66.325 162.757 66.325C163.462 66.325 164.347 66.595 165.052 67.03L165.682 65.755C164.962 65.245 163.897 64.945 162.892 64.945ZM168.408 61.69C167.838 61.69 167.403 62.125 167.403 62.74C167.403 63.34 167.838 63.775 168.408 63.775C168.978 63.775 169.413 63.34 169.413 62.74C169.413 62.125 168.978 61.69 168.408 61.69ZM169.263 73V65.02H167.553V73H169.263ZM175.896 71.17C175.431 71.395 175.056 71.515 174.696 71.515C174.156 71.515 173.841 71.26 173.841 70.435V66.61H176.196V65.32H173.841V63.13H172.131V65.32H171.006V66.61H172.131V70.75C172.131 72.385 173.166 73.075 174.366 73.075C175.041 73.075 175.701 72.865 176.331 72.49L175.896 71.17ZM178.779 61.69C178.209 61.69 177.774 62.125 177.774 62.74C177.774 63.34 178.209 63.775 178.779 63.775C179.349 63.775 179.784 63.34 179.784 62.74C179.784 62.125 179.349 61.69 178.779 61.69ZM179.634 73V65.02H177.924V73H179.634ZM185.607 64.96C183.132 64.96 181.437 66.595 181.437 69.01C181.437 71.41 183.132 73.06 185.607 73.06C188.067 73.06 189.762 71.41 189.762 69.01C189.762 66.595 188.067 64.96 185.607 64.96ZM185.607 66.445C187.032 66.445 188.037 67.495 188.037 69.025C188.037 70.57 187.032 71.62 185.607 71.62C184.167 71.62 183.162 70.57 183.162 69.025C183.162 67.495 184.167 66.445 185.607 66.445ZM196.227 64.96C194.877 64.96 193.857 65.44 193.287 66.55V65.02H191.562V73H193.287V68.755C193.407 67.51 194.232 66.595 195.552 66.58C196.752 66.58 197.472 67.315 197.472 68.515V73H199.197V68.035C199.197 66.13 198.087 64.96 196.227 64.96Z" fill="black"/>
<path d="M311.108 60.3V75H308.378V62.589H305.27V60.3H311.108ZM315.662 75.147C315.186 75.147 314.78 74.986 314.444 74.664C314.108 74.328 313.94 73.908 313.94 73.404C313.94 72.886 314.101 72.466 314.423 72.144C314.759 71.822 315.172 71.661 315.662 71.661C316.152 71.661 316.558 71.822 316.88 72.144C317.216 72.466 317.384 72.886 317.384 73.404C317.384 73.908 317.216 74.328 316.88 74.664C316.544 74.986 316.138 75.147 315.662 75.147ZM323.75 65.991C325.822 65.991 327.355 66.397 328.349 67.209C329.343 68.007 329.84 69.099 329.84 70.485C329.84 71.367 329.623 72.165 329.189 72.879C328.755 73.593 328.104 74.16 327.236 74.58C326.368 75 325.297 75.21 324.023 75.21C322.973 75.21 321.958 75.063 320.978 74.769C319.998 74.461 319.172 74.041 318.5 73.509L319.655 71.388C320.201 71.836 320.852 72.193 321.608 72.459C322.378 72.711 323.169 72.837 323.981 72.837C324.947 72.837 325.703 72.641 326.249 72.249C326.809 71.843 327.089 71.29 327.089 70.59C327.089 69.834 326.788 69.267 326.186 68.889C325.598 68.497 324.583 68.301 323.141 68.301H319.592L320.348 60.3H328.979V62.589H322.658L322.343 65.991H323.75ZM342.236 60.3V62.127L336.524 75H333.605L339.128 62.61H333.353V65.109H330.812V60.3H342.236Z" fill="black"/>
<g clip-path="url(#clip0)">
<path d="M47.9897 63.8934L48.2152 63.9139L53.9877 64.438L53.9881 64.4381C54.1793 64.4553 54.3453 64.5676 54.434 64.7336L53.5314 64.6517L48.0806 64.1567C47.8713 64.1376 47.6929 64.0069 47.6113 63.8146L47.6109 63.8135L45.4592 58.7725L45.1028 57.9376C45.2858 57.9714 45.4429 58.0942 45.519 58.2708C45.5191 58.271 45.5191 58.2711 45.5192 58.2713L47.8014 63.613L47.8394 63.7019M47.9897 63.8934L48.1661 63.6818L47.8659 63.7583C47.9023 63.8248 47.9452 63.8665 47.9606 63.881C47.9647 63.8849 47.9688 63.8886 47.9725 63.8919M47.9897 63.8934L47.9725 63.8919M47.9897 63.8934L47.9833 63.9011C47.9868 63.9041 47.981 63.8994 47.9725 63.8919M47.9725 63.8919L47.9185 63.887L47.8502 63.7272M47.8502 63.7272C47.8547 63.7368 47.8595 63.7466 47.8649 63.7565L48.1535 63.5194H48.0203H47.8046C47.8046 63.5095 47.804 63.5386 47.8072 63.5694C47.8083 63.5807 47.81 63.5938 47.8126 63.6082C47.8176 63.6354 47.8258 63.6674 47.8394 63.7019M47.8502 63.7272L47.8394 63.7019M47.8502 63.7272C47.8463 63.7187 47.8427 63.7102 47.8394 63.7019M41.1981 63.4867C41.1985 63.4801 41.1991 63.4731 41.1999 63.4659L41.4519 63.4431L41.5458 63.5202C41.1969 63.5202 41.1969 63.5199 41.1969 63.5197L41.1969 63.5192L41.1969 63.5182L41.1969 63.5163L41.197 63.5123L41.1972 63.504C41.1974 63.4985 41.1977 63.4927 41.1981 63.4867ZM49.787 69.7376L51.0735 75.4048C51.1163 75.5938 51.0606 75.7865 50.9312 75.9213L50.7304 75.0368L49.516 69.6874L49.516 69.6871C49.4701 69.4854 49.5384 69.2745 49.6949 69.1375L49.6952 69.1372L53.8153 65.5239L54.4962 64.9267C54.521 65.1122 54.4524 65.3 54.3089 65.4252L54.3081 65.4259L49.9446 69.2519L49.7212 69.4478L49.787 69.7376ZM49.9875 75.5755L50.7655 76.0408C50.5971 76.1208 50.3979 76.1128 50.2357 76.0153L50.2346 76.0147L45.2562 73.0396L45.0001 72.8866L44.7441 73.0397L39.7669 76.0156C39.7668 76.0158 39.7666 76.0159 39.7664 76.016C39.6748 76.0702 39.5754 76.0966 39.4767 76.0966C39.3939 76.0966 39.3109 76.0781 39.2335 76.0406L40.0128 75.5746L44.7099 72.7662C44.7101 72.7661 44.7103 72.766 44.7105 72.7658C44.8019 72.7117 44.9013 72.6854 45.0002 72.6854C45.099 72.6854 45.1983 72.7117 45.2901 72.766C45.2902 72.7661 45.2904 72.7662 45.2906 72.7663L49.9875 75.5755ZM35.6922 65.4252C35.5481 65.2994 35.4793 65.1116 35.5043 64.9258L36.1843 65.5222L40.3043 69.1355L40.3046 69.1359C40.4621 69.2737 40.5299 69.4837 40.4837 69.6856L40.4834 69.6867L39.27 75.0359L39.0692 75.9209C38.9401 75.7856 38.8852 75.5934 38.9275 75.406C38.9275 75.406 38.9275 75.406 38.9276 75.4059C38.9276 75.4059 38.9276 75.4058 38.9276 75.4058L40.2142 69.7383L40.28 69.4486L40.0566 69.2526L35.6931 65.426L35.6922 65.4252ZM36.4682 64.65L35.5674 64.7318C35.6562 64.5672 35.8214 64.4557 36.0122 64.438C36.0123 64.438 36.0124 64.438 36.0125 64.438L41.7852 63.9139L42.0014 63.8943L42.0146 63.9052C42.02 63.9007 42.0251 63.8962 42.0302 63.8917L42.0819 63.887L42.1498 63.728C42.1533 63.7205 42.1565 63.713 42.1594 63.7055L42.199 63.613L44.4813 58.2718C44.4814 58.2717 44.4814 58.2716 44.4815 58.2715C44.5577 58.0941 44.715 57.9712 44.898 57.9375L44.5413 58.7723L42.387 63.8141L42.387 63.8141L42.3862 63.8161C42.3065 64.0047 42.1288 64.1358 41.9198 64.155C41.9197 64.155 41.9197 64.155 41.9196 64.155L36.4682 64.65Z" fill="black" stroke="black" stroke-width="0.998073"/>
</g>
<defs>
<clipPath id="clip0">
<rect x="35" y="57" width="20" height="20" fill="white"/>
</clipPath>
</defs>
</svg>
