<svg width="14" height="14" viewBox="0 0 14 14" fill="none" xmlns="http://www.w3.org/2000/svg">
<g clip-path="url(#clip0)">
<path d="M13.2115 6.23902C13.166 6.34806 13.0599 6.41921 12.9421 6.41921H9.7471V13.7084C9.7471 13.8694 9.61647 14 9.45552 14H4.79041C4.62946 14 4.49883 13.8694 4.49883 13.7084V6.41918H1.29158C1.17379 6.41918 1.06765 6.34803 1.02217 6.23956C0.977255 6.13053 1.00175 6.00514 1.08514 5.92175L6.90195 0.0856943C6.95676 0.0308886 7.03083 -2.67029e-05 7.10838 -2.67029e-05C7.18593 -2.67029e-05 7.26001 0.0308886 7.31481 0.0851202L13.1485 5.92117C13.2319 6.0046 13.257 6.12995 13.2115 6.23902Z" fill="#5E89F3"/>
</g>
<defs>
<clipPath id="clip0">
<rect width="14" height="14" transform="matrix(1 0 0 -1 0 14)" fill="white"/>
</clipPath>
</defs>
</svg>
